<svg xmlns="http://www.w3.org/2000/svg">

  <symbol id="flight-search-icon-active" width="48" height="48" viewBox="0 0 48 48" fill="none"
    xmlns="http://www.w3.org/2000/svg">
    <path fill-rule="evenodd" clip-rule="evenodd"
      d="M33.6558 23.402C33.4599 22.706 33.0338 22.173 32.4248 21.86C31.2498 21.256 29.8478 21.652 29.2998 21.85C28.2118 22.243 27.1628 22.704 26.0698 23.146C24.8548 22.021 23.6198 20.936 22.4668 19.931C21.6408 19.209 20.7928 18.944 19.9398 19.148C19.4968 19.256 19.0778 19.417 18.6728 19.572C18.4668 19.652 18.2568 19.732 18.0408 19.807C17.8448 19.874 17.6868 20.019 17.6018 20.207C17.5168 20.396 17.5128 20.611 17.5918 20.802L19.6618 25.821C18.9478 26.121 18.0708 26.493 17.2438 26.844L15.9988 27.372C15.8758 27.074 15.7428 26.754 15.6938 26.632C15.5358 26.25 15.0998 26.064 14.7158 26.222C14.3318 26.379 14.1478 26.817 14.3048 27.2C14.3948 27.421 14.7538 28.285 14.8478 28.51C14.8668 28.555 14.8868 28.599 14.9058 28.643L14.9078 28.646C14.9138 28.66 14.9198 28.674 14.9268 28.688C15.8148 30.631 17.2928 31.661 19.0828 31.661C19.7588 31.661 20.4808 31.513 21.2318 31.212C24.5308 29.895 27.6978 28.571 31.4998 26.975C32.8568 26.394 34.1118 25.027 33.6558 23.402Z"
      fill="#fff" />
  </symbol>
  <symbol id="flight-search-icon" width="48" height="48" viewBox="0 0 51 48" fill="none"
    xmlns="http://www.w3.org/2000/svg">
    <path fill-rule="evenodd" clip-rule="evenodd"
      d="M33.6558 23.402C33.4599 22.706 33.0338 22.173 32.4248 21.86C31.2498 21.256 29.8478 21.652 29.2998 21.85C28.2118 22.243 27.1628 22.704 26.0698 23.146C24.8548 22.021 23.6198 20.936 22.4668 19.931C21.6408 19.209 20.7928 18.944 19.9398 19.148C19.4968 19.256 19.0778 19.417 18.6728 19.572C18.4668 19.652 18.2568 19.732 18.0408 19.807C17.8448 19.874 17.6868 20.019 17.6018 20.207C17.5168 20.396 17.5128 20.611 17.5918 20.802L19.6618 25.821C18.9478 26.121 18.0708 26.493 17.2438 26.844L15.9988 27.372C15.8758 27.074 15.7428 26.754 15.6938 26.632C15.5358 26.25 15.0998 26.064 14.7158 26.222C14.3318 26.379 14.1478 26.817 14.3048 27.2C14.3948 27.421 14.7538 28.285 14.8478 28.51C14.8668 28.555 14.8868 28.599 14.9058 28.643L14.9078 28.646C14.9138 28.66 14.9198 28.674 14.9268 28.688C15.8148 30.631 17.2928 31.661 19.0828 31.661C19.7588 31.661 20.4808 31.513 21.2318 31.212C24.5308 29.895 27.6978 28.571 31.4998 26.975C32.8568 26.394 34.1118 25.027 33.6558 23.402Z"
      fill="#18181B" />
  </symbol>





  <symbol id="hotel-search-icon-active" width="48" height="48" viewBox="0 0 49 48" fill="none"
    xmlns="http://www.w3.org/2000/svg">
    <path fill-rule="evenodd" clip-rule="evenodd"
      d="M16.6211 22.6431H18.8391C18.9495 22.6431 19.0385 22.5535 19.0376 22.4431C19.0354 22.1766 19.0387 21.9043 19.1261 21.6531C19.2801 21.2261 19.6091 20.8971 20.0311 20.7461C20.2781 20.6571 20.5271 20.6571 20.9791 20.6571H21.5991C22.0521 20.6571 22.3021 20.6571 22.5481 20.7471C22.9691 20.8971 23.2981 21.2261 23.4501 21.6471C23.5383 21.9007 23.5424 22.1745 23.5405 22.4431C23.5397 22.5535 23.6287 22.6431 23.7391 22.6431H24.3391C24.4496 22.6431 24.5386 22.5535 24.5377 22.4431C24.5354 22.1766 24.5387 21.9043 24.6261 21.6531C24.7801 21.2261 25.1091 20.8971 25.5311 20.7461C25.7781 20.6571 26.0271 20.6571 26.4791 20.6571H27.0991C27.5521 20.6571 27.8021 20.6571 28.0481 20.7471C28.4691 20.8971 28.7981 21.2261 28.9501 21.6471C29.0383 21.9007 29.0424 22.1745 29.0405 22.4431C29.0397 22.5535 29.1287 22.6431 29.2391 22.6431H31.4581C31.7351 22.6431 31.9581 22.4191 31.9581 22.1431V18.9291C31.9581 18.1581 31.9581 17.7711 31.8261 17.4031C31.5981 16.7711 31.1041 16.2791 30.4801 16.0561C30.1061 15.9141 29.7171 15.9141 28.9401 15.9141H19.1401C18.3631 15.9141 17.9741 15.9141 17.6101 16.0531C16.9761 16.2791 16.4821 16.7711 16.2541 17.4031C16.1211 17.7701 16.1211 18.1581 16.1211 18.9291V22.1431C16.1211 22.4191 16.3451 22.6431 16.6211 22.6431Z"
      fill="white" />
    <path fill-rule="evenodd" clip-rule="evenodd"
      d="M33.6501 25.1452C33.4171 24.4932 32.9051 23.9752 32.2231 23.7172C31.8421 23.5872 31.4481 23.5872 30.7341 23.5872H17.3421C16.6281 23.5872 16.2351 23.5872 15.8311 23.7262C15.1731 23.9752 14.6621 24.4922 14.4291 25.1402C14.2891 25.5242 14.2891 25.9192 14.2891 26.6372V31.3372C14.2891 31.7512 14.6251 32.0872 15.0391 32.0872C15.4531 32.0872 15.7891 31.7512 15.7891 31.3372V31.0472C15.7891 30.9367 15.8786 30.8472 15.9891 30.8472H32.0891C32.1995 30.8472 32.2891 30.9367 32.2891 31.0472V31.3372C32.2891 31.7512 32.6251 32.0872 33.0391 32.0872C33.4531 32.0872 33.7891 31.7512 33.7891 31.3372V26.6372C33.7891 25.9192 33.7891 25.5242 33.6501 25.1452Z"
      fill="white" />
  </symbol>

  <symbol id="hotel-search-icon" width="48" height="48" viewBox="0 0 49 48" fill="none"
    xmlns="http://www.w3.org/2000/svg">
    <path fill-rule="evenodd" clip-rule="evenodd"
      d="M16.6211 22.6431H18.8391C18.9495 22.6431 19.0385 22.5535 19.0376 22.4431C19.0354 22.1766 19.0387 21.9043 19.1261 21.6531C19.2801 21.2261 19.6091 20.8971 20.0311 20.7461C20.2781 20.6571 20.5271 20.6571 20.9791 20.6571H21.5991C22.0521 20.6571 22.3021 20.6571 22.5481 20.7471C22.9691 20.8971 23.2981 21.2261 23.4501 21.6471C23.5383 21.9007 23.5424 22.1745 23.5405 22.4431C23.5397 22.5535 23.6287 22.6431 23.7391 22.6431H24.3391C24.4496 22.6431 24.5386 22.5535 24.5377 22.4431C24.5354 22.1766 24.5387 21.9043 24.6261 21.6531C24.7801 21.2261 25.1091 20.8971 25.5311 20.7461C25.7781 20.6571 26.0271 20.6571 26.4791 20.6571H27.0991C27.5521 20.6571 27.8021 20.6571 28.0481 20.7471C28.4691 20.8971 28.7981 21.2261 28.9501 21.6471C29.0383 21.9007 29.0424 22.1745 29.0405 22.4431C29.0397 22.5535 29.1287 22.6431 29.2391 22.6431H31.4581C31.7351 22.6431 31.9581 22.4191 31.9581 22.1431V18.9291C31.9581 18.1581 31.9581 17.7711 31.8261 17.4031C31.5981 16.7711 31.1041 16.2791 30.4801 16.0561C30.1061 15.9141 29.7171 15.9141 28.9401 15.9141H19.1401C18.3631 15.9141 17.9741 15.9141 17.6101 16.0531C16.9761 16.2791 16.4821 16.7711 16.2541 17.4031C16.1211 17.7701 16.1211 18.1581 16.1211 18.9291V22.1431C16.1211 22.4191 16.3451 22.6431 16.6211 22.6431Z"
      fill="#18181B" />
    <path fill-rule="evenodd" clip-rule="evenodd"
      d="M33.6501 25.1452C33.4171 24.4932 32.9051 23.9752 32.2231 23.7172C31.8421 23.5872 31.4481 23.5872 30.7341 23.5872H17.3421C16.6281 23.5872 16.2351 23.5872 15.8311 23.7262C15.1731 23.9752 14.6621 24.4922 14.4291 25.1402C14.2891 25.5242 14.2891 25.9192 14.2891 26.6372V31.3372C14.2891 31.7512 14.6251 32.0872 15.0391 32.0872C15.4531 32.0872 15.7891 31.7512 15.7891 31.3372V31.0472C15.7891 30.9367 15.8786 30.8472 15.9891 30.8472H32.0891C32.1995 30.8472 32.2891 30.9367 32.2891 31.0472V31.3372C32.2891 31.7512 32.6251 32.0872 33.0391 32.0872C33.4531 32.0872 33.7891 31.7512 33.7891 31.3372V26.6372C33.7891 25.9192 33.7891 25.5242 33.6501 25.1452Z"
      fill="#18181B" />
  </symbol>

  <symbol id="flighthotel-search-icon-active" width="48" height="48" viewBox="0 0 48 48" fill="none"
    xmlns="http://www.w3.org/2000/svg">

    <path fill-rule="evenodd" clip-rule="evenodd"
      d="M28.158 29.6211C28.158 30.0351 27.822 30.3711 27.408 30.3711C26.994 30.3711 26.658 30.0351 26.658 29.6211V24.4411C26.658 24.0271 26.994 23.6911 27.408 23.6911C27.822 23.6911 28.158 24.0271 28.158 24.4411V29.6211ZM26.285 20.4011H21.717V18.0011C21.717 17.5161 22.111 17.1211 22.596 17.1211H25.405C25.89 17.1211 26.285 17.5161 26.285 18.0011V20.4011ZM24.752 29.6211C24.752 30.0351 24.416 30.3711 24.002 30.3711C23.588 30.3711 23.252 30.0351 23.252 29.6211V24.4411C23.252 24.0271 23.588 23.6911 24.002 23.6911C24.416 23.6911 24.752 24.0271 24.752 24.4411V29.6211ZM21.352 29.6211C21.352 30.0351 21.016 30.3711 20.602 30.3711C20.188 30.3711 19.852 30.0351 19.852 29.6211V24.4411C19.852 24.0271 20.188 23.6911 20.602 23.6911C21.016 23.6911 21.352 24.0271 21.352 24.4411V29.6211ZM27.785 20.4321V18.0011C27.785 16.6881 26.717 15.6211 25.405 15.6211H22.596C21.284 15.6211 20.217 16.6881 20.217 18.0011V20.4321C17.921 20.5931 16.501 22.1561 16.501 24.6211V29.3011C16.501 31.6391 17.769 33.1731 19.85 33.4681V34.3711C19.85 34.7851 20.186 35.1211 20.6 35.1211C21.014 35.1211 21.35 34.7851 21.35 34.3711V33.5311H26.656V34.3711C26.656 34.7851 26.992 35.1211 27.406 35.1211C27.82 35.1211 28.156 34.7851 28.156 34.3711V33.4681C30.234 33.1731 31.499 31.6421 31.499 29.3101V24.6211C31.499 22.1551 30.08 20.5921 27.785 20.4321Z"
      fill="#fff" />



  </symbol>

  <symbol id="flighthotel-search-icon" width="48" height="48" viewBox="0 0 48 48" fill="none"
    xmlns="http://www.w3.org/2000/svg">
    <path fill-rule="evenodd" clip-rule="evenodd"
      d="M28.158 29.6211C28.158 30.0351 27.822 30.3711 27.408 30.3711C26.994 30.3711 26.658 30.0351 26.658 29.6211V24.4411C26.658 24.0271 26.994 23.6911 27.408 23.6911C27.822 23.6911 28.158 24.0271 28.158 24.4411V29.6211ZM26.285 20.4011H21.717V18.0011C21.717 17.5161 22.111 17.1211 22.596 17.1211H25.405C25.89 17.1211 26.285 17.5161 26.285 18.0011V20.4011ZM24.752 29.6211C24.752 30.0351 24.416 30.3711 24.002 30.3711C23.588 30.3711 23.252 30.0351 23.252 29.6211V24.4411C23.252 24.0271 23.588 23.6911 24.002 23.6911C24.416 23.6911 24.752 24.0271 24.752 24.4411V29.6211ZM21.352 29.6211C21.352 30.0351 21.016 30.3711 20.602 30.3711C20.188 30.3711 19.852 30.0351 19.852 29.6211V24.4411C19.852 24.0271 20.188 23.6911 20.602 23.6911C21.016 23.6911 21.352 24.0271 21.352 24.4411V29.6211ZM27.785 20.4321V18.0011C27.785 16.6881 26.717 15.6211 25.405 15.6211H22.596C21.284 15.6211 20.217 16.6881 20.217 18.0011V20.4321C17.921 20.5931 16.501 22.1561 16.501 24.6211V29.3011C16.501 31.6391 17.769 33.1731 19.85 33.4681V34.3711C19.85 34.7851 20.186 35.1211 20.6 35.1211C21.014 35.1211 21.35 34.7851 21.35 34.3711V33.5311H26.656V34.3711C26.656 34.7851 26.992 35.1211 27.406 35.1211C27.82 35.1211 28.156 34.7851 28.156 34.3711V33.4681C30.234 33.1731 31.499 31.6421 31.499 29.3101V24.6211C31.499 22.1551 30.08 20.5921 27.785 20.4321Z"
      fill="#09090B" />


  </symbol>





  <symbol id="engine-down-icon" width="24" height="24" viewBox="0 0 48 49" fill="none"
    xmlns="http://www.w3.org/2000/svg">
    <path fill-rule="evenodd" clip-rule="evenodd"
      d="M20.4139 8.2501L11.9999 16.6641L3.58594 8.2501L4.99994 6.8361L11.9999 13.8361L18.9999 6.8361L20.4139 8.2501Z"
      fill="#52525B" />
  </symbol>

  <symbol id="engine-exchange-icon" width="24" height="24" viewBox="0 0 24 24" fill="none"
    xmlns="http://www.w3.org/2000/svg">
    <path
      d="M18.6885 3.99063H9.33021V6.66042H18.6885V10.6511L24 5.33958L18.6885 0V3.99063ZM0 13.3208L5.33958 18.6604V14.6698H14.6698V12H5.33958V8.00937L0 13.3208Z"
      fill="#FAFAFA" />
  </symbol>

  <symbol id="engine-search-icon" width="32" height="32" viewBox="0 0 28 28" fill="none"
    xmlns="http://www.w3.org/2000/svg">
    <path
      d="M23.4946 23.5389C24.01 23.027 24.8361 23.027 25.3515 23.5389L28.7577 26.2884H28.8168C29.5059 26.9849 29.5059 28.1142 28.8168 28.8108C28.1277 29.5073 27.0104 29.5073 26.3213 28.8108L23.4946 25.5711L23.3873 25.4501C23.1875 25.1972 23.0772 24.8818 23.0772 24.555C23.0772 24.1737 23.2274 23.808 23.4946 23.5389ZM14.1038 2.6665C17.1371 2.6665 20.0461 3.88442 22.1909 6.05232C24.3357 8.22022 25.5407 11.1605 25.5407 14.2264C25.5407 20.6108 20.4202 25.7863 14.1038 25.7863C7.78745 25.7863 2.66699 20.6108 2.66699 14.2264C2.66699 7.84205 7.78745 2.6665 14.1038 2.6665Z"
      fill="white" />


  </symbol>

  <symbol id="engine-close-icon" width="14" height="14" viewBox="0 0 14 14" fill="none"
    xmlns="http://www.w3.org/2000/svg">
    <path
      d="M1.53033 0.469668C1.23744 0.176777 0.762558 0.176777 0.469668 0.469668C0.176777 0.762558 0.176777 1.23744 0.469668 1.53033L5.9393 7L0.469668 12.4697C0.176777 12.7626 0.176777 13.2374 0.469668 13.5303C0.762558 13.8232 1.23744 13.8232 1.53033 13.5303L7 8.0607L12.4697 13.5303C12.7626 13.8232 13.2374 13.8232 13.5303 13.5303C13.8232 13.2374 13.8232 12.7626 13.5303 12.4697L8.0607 7L13.5303 1.53033C13.8232 1.23744 13.8232 0.762558 13.5303 0.469668C13.2374 0.176777 12.7626 0.176777 12.4697 0.469668L7 5.9393L1.53033 0.469668Z"
      fill="#FAAF02" />
  </symbol>

  <symbol id="engine-removeroute-icon" width="24" height="25" viewBox="0 0 24 25" fill="none"
    xmlns="http://www.w3.org/2000/svg">

    <path opacity="0.4" fill-rule="evenodd" clip-rule="evenodd"
      d="M12.25 3.28467C6.874 3.28467 2.5 7.65867 2.5 13.0347C2.5 18.4107 6.874 22.7847 12.25 22.7847C17.626 22.7847 22 18.4107 22 13.0347C22 7.65867 17.626 3.28467 12.25 3.28467Z"
      fill="#71717A" />
    <path
      d="M14.6496 16.4849L15.7106 15.4239L13.3106 13.0259L15.7106 10.6309L14.6506 9.56889L12.2496 11.9659L9.84957 9.56689L8.78857 10.6279L11.1876 13.0259L8.78857 15.4209L9.84857 16.4819L12.2486 14.0859L14.6496 16.4849Z"
      fill="#71717A" />

  </symbol>

  <symbol id="engine-departureflight-icon" width="48" height="48" viewBox="0 0 48 48" fill="none"
    xmlns="http://www.w3.org/2000/svg">

    <path fill-rule="evenodd" clip-rule="evenodd"
      d="M24.6253 25.5312C22.724 25.5312 21.1765 23.9837 21.1765 22.0825C21.1765 20.1812 22.724 18.6337 24.6253 18.6337C26.5265 18.6337 28.0728 20.1812 28.0728 22.0825C28.0728 23.9837 26.5265 25.5312 24.6253 25.5312ZM24.6253 12.125C19.094 12.125 14.5928 16.6263 14.5928 22.1588C14.5928 29.2038 22.8328 35.875 24.6253 35.875C26.4178 35.875 34.6578 29.2038 34.6578 22.1588C34.6578 16.6263 30.1565 12.125 24.6253 12.125Z"
      fill="#FAAF02" />


  </symbol>
  <symbol id="engine-destinationflight-icon" width="48" height="48" viewBox="0 0 48 48" fill="none"
    xmlns="http://www.w3.org/2000/svg">

    <path fill-rule="evenodd" clip-rule="evenodd"
      d="M24.6253 25.5312C22.724 25.5312 21.1765 23.9837 21.1765 22.0825C21.1765 20.1812 22.724 18.6337 24.6253 18.6337C26.5265 18.6337 28.0728 20.1812 28.0728 22.0825C28.0728 23.9837 26.5265 25.5312 24.6253 25.5312ZM24.6253 12.125C19.094 12.125 14.5928 16.6263 14.5928 22.1588C14.5928 29.2038 22.8328 35.875 24.6253 35.875C26.4178 35.875 34.6578 29.2038 34.6578 22.1588C34.6578 16.6263 30.1565 12.125 24.6253 12.125Z"
      fill="#FAAF02" />


  </symbol>

  <symbol id="engine-departurecalendar-icon" width="48" height="48" viewBox="0 0 48 48" fill="none"
    xmlns="http://www.w3.org/2000/svg">

    <path fill-rule="evenodd" clip-rule="evenodd"
      d="M19.3355 28.1596C19.8491 28.1596 20.2667 28.576 20.2667 29.0908C20.2667 29.6044 19.8491 30.022 19.3355 30.022C18.8219 30.022 18.4043 29.6044 18.4043 29.0908C18.4043 28.576 18.8219 28.1596 19.3355 28.1596ZM24.1811 28.1596C24.6947 28.1596 25.1123 28.576 25.1123 29.0908C25.1123 29.6044 24.6947 30.022 24.1811 30.022C23.6663 30.022 23.2499 29.6044 23.2499 29.0908C23.2499 28.576 23.6663 28.1596 24.1811 28.1596ZM28.9979 28.1596C29.5115 28.1596 29.9279 28.576 29.9279 29.0908C29.9279 29.6044 29.5115 30.022 28.9979 30.022C28.4831 30.022 28.0667 29.6044 28.0667 29.0908C28.0667 28.576 28.4831 28.1596 28.9979 28.1596ZM13.8467 30.238C13.8467 33.814 15.9947 35.95 19.5947 35.95H28.7387C32.3387 35.95 34.4867 33.85 34.4867 30.322V23.47C34.4867 23.3374 34.3793 23.23 34.2467 23.23H14.0867C13.9541 23.23 13.8467 23.3374 13.8467 23.47V30.238Z"
      fill="#FAAF02" />
    <path fill-rule="evenodd" clip-rule="evenodd"
      d="M33.0107 16.3901C32.1347 15.5261 30.8987 15.0341 29.4347 14.9021V13.7501C29.4347 13.2581 29.0267 12.8501 28.5347 12.8501C28.0307 12.8501 27.6347 13.2581 27.6347 13.7501V18.0101C27.5507 18.0341 27.4787 18.0581 27.3947 18.0581C26.8907 18.0581 26.4947 17.6501 26.4947 17.1581V15.0941C26.4947 14.9615 26.3873 14.8541 26.2547 14.8541H20.6987V13.7501C20.6987 13.2581 20.3027 12.8501 19.7987 12.8501C19.3067 12.8501 18.8987 13.2581 18.8987 13.7501V18.0101C18.8267 18.0341 18.7427 18.0581 18.6587 18.0581C18.1667 18.0581 17.7587 17.6501 17.7587 17.1581V15.4008C17.7587 15.2449 17.6118 15.1303 17.4625 15.175C15.172 15.8618 13.8467 17.7186 13.8467 20.4701V21.1901C13.8467 21.3226 13.9541 21.4301 14.0867 21.4301H34.2467C34.3793 21.4301 34.4867 21.3226 34.4867 21.1901V20.4701C34.4867 18.7781 33.9827 17.3621 33.0107 16.3901Z"
      fill="#FAAF02" />


  </symbol>

  <symbol id="engine-returncalendar-icon" width="48" height="48" viewBox="0 0 48 48" fill="none"
    xmlns="http://www.w3.org/2000/svg">

    <path fill-rule="evenodd" clip-rule="evenodd"
      d="M19.3355 28.1596C19.8491 28.1596 20.2667 28.576 20.2667 29.0908C20.2667 29.6044 19.8491 30.022 19.3355 30.022C18.8219 30.022 18.4043 29.6044 18.4043 29.0908C18.4043 28.576 18.8219 28.1596 19.3355 28.1596ZM24.1811 28.1596C24.6947 28.1596 25.1123 28.576 25.1123 29.0908C25.1123 29.6044 24.6947 30.022 24.1811 30.022C23.6663 30.022 23.2499 29.6044 23.2499 29.0908C23.2499 28.576 23.6663 28.1596 24.1811 28.1596ZM28.9979 28.1596C29.5115 28.1596 29.9279 28.576 29.9279 29.0908C29.9279 29.6044 29.5115 30.022 28.9979 30.022C28.4831 30.022 28.0667 29.6044 28.0667 29.0908C28.0667 28.576 28.4831 28.1596 28.9979 28.1596ZM13.8467 30.238C13.8467 33.814 15.9947 35.95 19.5947 35.95H28.7387C32.3387 35.95 34.4867 33.85 34.4867 30.322V23.47C34.4867 23.3374 34.3793 23.23 34.2467 23.23H14.0867C13.9541 23.23 13.8467 23.3374 13.8467 23.47V30.238Z"
      fill="#FAAF02" />
    <path fill-rule="evenodd" clip-rule="evenodd"
      d="M33.0107 16.3901C32.1347 15.5261 30.8987 15.0341 29.4347 14.9021V13.7501C29.4347 13.2581 29.0267 12.8501 28.5347 12.8501C28.0307 12.8501 27.6347 13.2581 27.6347 13.7501V18.0101C27.5507 18.0341 27.4787 18.0581 27.3947 18.0581C26.8907 18.0581 26.4947 17.6501 26.4947 17.1581V15.0941C26.4947 14.9615 26.3873 14.8541 26.2547 14.8541H20.6987V13.7501C20.6987 13.2581 20.3027 12.8501 19.7987 12.8501C19.3067 12.8501 18.8987 13.2581 18.8987 13.7501V18.0101C18.8267 18.0341 18.7427 18.0581 18.6587 18.0581C18.1667 18.0581 17.7587 17.6501 17.7587 17.1581V15.4008C17.7587 15.2449 17.6118 15.1303 17.4625 15.175C15.172 15.8618 13.8467 17.7186 13.8467 20.4701V21.1901C13.8467 21.3226 13.9541 21.4301 14.0867 21.4301H34.2467C34.3793 21.4301 34.4867 21.3226 34.4867 21.1901V20.4701C34.4867 18.7781 33.9827 17.3621 33.0107 16.3901Z"
      fill="#FAAF02" />


  </symbol>
  <symbol id="engine-passenger-icon" width="48" height="48" viewBox="0 0 48 48" fill="none"
    xmlns="http://www.w3.org/2000/svg">
    <path fill-rule="evenodd" clip-rule="evenodd"
      d="M24.125 13.187C27.3013 13.187 29.875 15.762 29.875 18.937C29.875 22.1132 27.3013 24.687 24.125 24.687C20.9488 24.687 18.375 22.1132 18.375 18.937C18.375 15.762 20.9488 13.187 24.125 13.187Z"
      fill="#FAAF02" />
    <path fill-rule="evenodd" clip-rule="evenodd"
      d="M27.125 26.312H21.25C18 26.312 15.25 29.062 15.25 32.312C15.25 32.937 15.25 33.687 15.375 34.312C15.375 34.562 15.625 34.812 16 34.812H32.375C32.625 34.812 32.875 34.562 33 34.312C33.125 33.687 33.125 32.937 33.125 32.312C33 28.937 30.375 26.312 27.125 26.312Z"
      fill="#FAAF02" />
  </symbol>


  <symbol id="engine-departurehotel-icon" width="48" height="48" viewBox="0 0 48 48" fill="none"
    xmlns="http://www.w3.org/2000/svg">

    <path fill-rule="evenodd" clip-rule="evenodd"
      d="M24.6253 25.5312C22.724 25.5312 21.1765 23.9837 21.1765 22.0825C21.1765 20.1812 22.724 18.6337 24.6253 18.6337C26.5265 18.6337 28.0728 20.1812 28.0728 22.0825C28.0728 23.9837 26.5265 25.5312 24.6253 25.5312ZM24.6253 12.125C19.094 12.125 14.5928 16.6263 14.5928 22.1588C14.5928 29.2038 22.8328 35.875 24.6253 35.875C26.4178 35.875 34.6578 29.2038 34.6578 22.1588C34.6578 16.6263 30.1565 12.125 24.6253 12.125Z"
      fill="#FAAF02" />


  </symbol>


  <symbol id="engine-departureflighthotel-icon" width="48" height="48" viewBox="0 0 48 48" fill="none"
    xmlns="http://www.w3.org/2000/svg">

    <path fill-rule="evenodd" clip-rule="evenodd"
      d="M24.6253 25.5312C22.724 25.5312 21.1765 23.9837 21.1765 22.0825C21.1765 20.1812 22.724 18.6337 24.6253 18.6337C26.5265 18.6337 28.0728 20.1812 28.0728 22.0825C28.0728 23.9837 26.5265 25.5312 24.6253 25.5312ZM24.6253 12.125C19.094 12.125 14.5928 16.6263 14.5928 22.1588C14.5928 29.2038 22.8328 35.875 24.6253 35.875C26.4178 35.875 34.6578 29.2038 34.6578 22.1588C34.6578 16.6263 30.1565 12.125 24.6253 12.125Z"
      fill="#FAAF02" />


  </symbol>

  <symbol id="engine-destinationflighthotel-icon" width="48" height="48" viewBox="0 0 48 48" fill="none"
    xmlns="http://www.w3.org/2000/svg">

    <path fill-rule="evenodd" clip-rule="evenodd"
      d="M24.6253 25.5312C22.724 25.5312 21.1765 23.9837 21.1765 22.0825C21.1765 20.1812 22.724 18.6337 24.6253 18.6337C26.5265 18.6337 28.0728 20.1812 28.0728 22.0825C28.0728 23.9837 26.5265 25.5312 24.6253 25.5312ZM24.6253 12.125C19.094 12.125 14.5928 16.6263 14.5928 22.1588C14.5928 29.2038 22.8328 35.875 24.6253 35.875C26.4178 35.875 34.6578 29.2038 34.6578 22.1588C34.6578 16.6263 30.1565 12.125 24.6253 12.125Z"
      fill="#FAAF02" />


  </symbol>
</svg>